<?xml version="1.0" standalone="no"?>
<!DOCTYPE svg PUBLIC "-//W3C//DTD SVG 20010904//EN"
 "http://www.w3.org/TR/2001/REC-SVG-20010904/DTD/svg10.dtd">
<svg version="1.0" xmlns="http://www.w3.org/2000/svg"
 width="400.000000pt" height="400.000000pt" viewBox="0 0 400.000000 400.000000"
 preserveAspectRatio="xMidYMid meet">
<metadata>
Created by potrace 1.11, written by Peter Selinger 2001-2013
</metadata>
<g transform="translate(0.000000,400.000000) scale(0.100000,-0.100000)"
fill="#000000" stroke="none">
<path d="M1870 3354 c-69 -119 -137 -237 -151 -263 -14 -25 -84 -147 -156
-271 -71 -124 -141 -245 -155 -270 -14 -25 -53 -91 -87 -148 -33 -57 -61 -105
-61 -107 0 -3 -152 -268 -170 -295 -5 -8 -24 -42 -43 -75 -19 -33 -43 -76 -54
-95 -11 -19 -46 -80 -78 -135 -126 -217 -223 -386 -279 -485 -21 -36 -41 -72
-46 -80 -18 -31 -223 -387 -242 -420 -62 -109 -143 -248 -156 -267 l-14 -23
120 0 120 0 122 143 c67 78 141 164 164 191 22 28 48 57 56 66 8 9 62 72 120
140 58 69 115 136 127 150 30 34 52 60 93 110 19 23 45 54 58 69 13 14 51 59
84 99 33 39 65 72 70 72 5 0 19 -10 32 -22 12 -13 49 -45 81 -73 55 -47 167
-144 295 -257 30 -26 58 -48 61 -48 6 0 57 58 121 135 27 33 159 188 187 220
14 17 62 73 106 125 44 52 84 100 90 106 5 6 29 33 51 60 78 92 246 289 273
319 14 17 46 55 71 85 25 29 57 67 72 84 26 29 27 30 10 61 -51 97 -757 1315
-762 1315 -3 0 -62 -97 -130 -216z"/>
<path d="M2935 1926 c-6 -6 -50 -58 -99 -116 -120 -142 -167 -197 -191 -224
-11 -13 -38 -44 -60 -71 -22 -27 -45 -53 -50 -59 -6 -6 -44 -51 -85 -101 -41
-49 -80 -95 -86 -101 -5 -6 -30 -35 -55 -64 -24 -29 -48 -58 -54 -64 -5 -6
-35 -40 -65 -76 -61 -71 -100 -117 -115 -134 -5 -6 -32 -38 -60 -71 -27 -33
-55 -66 -62 -73 -6 -7 -40 -46 -74 -87 l-61 -75 -32 26 c-17 15 -47 40 -66 58
-19 17 -84 74 -145 126 -60 52 -126 109 -145 127 -19 17 -47 41 -61 52 l-26
20 -24 -27 c-13 -15 -37 -43 -54 -63 -40 -47 -95 -111 -274 -321 -83 -97 -151
-179 -151 -182 0 -3 668 -6 1485 -6 839 0 1485 4 1485 9 0 5 -57 107 -126 227
-215 373 -351 609 -509 884 -241 418 -229 399 -240 386z"/>
</g>
</svg>
